<svg width="13" height="22" viewBox="0 0 13 22" fill="none" xmlns="http://www.w3.org/2000/svg">
<path d="M11.3276 1.00412L8.75752 1C5.8701 1 4.00412 2.91443 4.00412 5.87753V8.12639H1.41999C1.19669 8.12639 1.01587 8.30742 1.01587 8.53072V11.7891C1.01587 12.0124 1.1969 12.1932 1.41999 12.1932H4.00412V20.4151C4.00412 20.6384 4.18494 20.8192 4.40824 20.8192H7.77979C8.00309 20.8192 8.18391 20.6381 8.18391 20.4151V12.1932H11.2054C11.4287 12.1932 11.6095 12.0124 11.6095 11.7891L11.6107 8.53072C11.6107 8.42351 11.568 8.32082 11.4924 8.24495C11.4167 8.16907 11.3136 8.12639 11.2064 8.12639H8.18391V6.22C8.18391 5.30371 8.40226 4.83856 9.59587 4.83856L11.3272 4.83794C11.5503 4.83794 11.7311 4.65691 11.7311 4.43381V1.40825C11.7311 1.18536 11.5505 1.00454 11.3276 1.00412Z" fill="#454341" stroke="white" stroke-width="0.833333"/>
</svg>
