<svg width="18" height="18" viewBox="0 0 18 18" fill="none" xmlns="http://www.w3.org/2000/svg">
<path fill-rule="evenodd" clip-rule="evenodd" d="M5.87508 0.666687H12.1251C15.0011 0.666687 17.3334 2.99898 17.3334 5.87502V12.125C17.3334 15.0011 15.0011 17.3334 12.1251 17.3334H5.87508C2.99904 17.3334 0.666748 15.0011 0.666748 12.125V5.87502C0.666748 2.99898 2.99904 0.666687 5.87508 0.666687ZM12.1251 15.7709C14.1355 15.7709 15.7709 14.1354 15.7709 12.125V5.87502C15.7709 3.8646 14.1355 2.22919 12.1251 2.22919H5.87508C3.86466 2.22919 2.22925 3.8646 2.22925 5.87502V12.125C2.22925 14.1354 3.86466 15.7709 5.87508 15.7709H12.1251Z" fill="#454341"/>
<path fill-rule="evenodd" clip-rule="evenodd" d="M4.8335 9.00004C4.8335 6.699 6.69912 4.83337 9.00016 4.83337C11.3012 4.83337 13.1668 6.699 13.1668 9.00004C13.1668 11.3011 11.3012 13.1667 9.00016 13.1667C6.69912 13.1667 4.8335 11.3011 4.8335 9.00004ZM6.396 9.00004C6.396 10.4355 7.56475 11.6042 9.00016 11.6042C10.4356 11.6042 11.6043 10.4355 11.6043 9.00004C11.6043 7.56358 10.4356 6.39587 9.00016 6.39587C7.56475 6.39587 6.396 7.56358 6.396 9.00004Z" fill="#454341"/>
<circle cx="13.4793" cy="4.52085" r="0.555208" fill="#454341"/>
</svg>
