<svg width="24" height="24" viewBox="0 0 24 24" fill="none" xmlns="http://www.w3.org/2000/svg">
<path fill-rule="evenodd" clip-rule="evenodd" d="M12 24C5.37258 24 0 18.6274 0 12C0 5.37258 5.37258 0 12 0C18.6274 0 24 5.37258 24 12C24 18.6274 18.6274 24 12 24ZM8.69624 7.2312L4.09137 11.8361C3.81036 12.1171 3.81036 12.5726 4.09137 12.8536L8.69612 17.4585C8.83663 17.5989 9.02077 17.6692 9.2049 17.6692C9.38904 17.6692 9.57323 17.5989 9.71368 17.4585C9.9947 17.1775 9.9947 16.7219 9.71368 16.4409L6.33722 13.0644H18.6353C19.0327 13.0644 19.3548 12.7421 19.3548 12.3448C19.3548 11.9475 19.0327 11.6253 18.6353 11.6253H6.33722L9.7138 8.24876C9.99481 7.96775 9.99481 7.51221 9.7138 7.2312C9.43284 6.95024 8.97719 6.95024 8.69624 7.2312Z" fill="#FFB600"/>
</svg>
