<svg width="41" height="48" viewBox="0 0 41 48" fill="none" xmlns="http://www.w3.org/2000/svg">
<path d="M36.016 47.0249C26.5097 49.5446 15.9515 47.0903 8.49517 39.6607C0.784916 31.9784 -1.58645 20.991 1.37991 11.2752C1.72422 9.77918 2.43594 9.62563 2.43594 9.62563C3.2888 9.28302 4.41273 10.5019 4.41273 10.5019L36.895 42.8674L37.6728 43.6423C37.6728 43.6423 38.7494 44.7107 38.4345 45.4201C38.4345 45.4201 38.1487 46.7272 36.016 47.0249Z" fill="#FF0000"/>
<path d="M36.1335 38.5326C29.7347 34.8361 25.4307 27.9377 25.4307 20.0375C25.4307 11.868 30.0326 4.76998 36.7943 1.17573C37.7757 0.562584 38.236 0.858059 38.236 0.858059C38.8723 1.12768 38.8194 2.3712 38.8194 2.3712L38.8194 37.6118C38.8194 37.6118 38.8216 38.7504 38.2757 38.9606C38.2757 38.9606 37.4264 39.5041 36.1335 38.5326Z" fill="#FFB600"/>
</svg>
