<svg width="18" height="15" viewBox="0 0 18 15" fill="none" xmlns="http://www.w3.org/2000/svg">
<path d="M17.4999 1.93644C16.8801 2.20831 16.2197 2.38852 15.5312 2.47602C16.2395 2.0531 16.7801 1.38852 17.0343 0.58748C16.3739 0.98123 15.6447 1.25935 14.8676 1.41456C14.2405 0.746855 13.3468 0.333313 12.3718 0.333313C10.4801 0.333313 8.95721 1.86873 8.95721 3.75102C8.95721 4.02185 8.98013 4.28227 9.03638 4.53019C6.19575 4.39165 3.68221 3.03019 1.99367 0.95623C1.69888 1.46769 1.52596 2.0531 1.52596 2.68331C1.52596 3.86665 2.13534 4.9156 3.04367 5.5229C2.49471 5.51248 1.95617 5.35311 1.49992 5.10206C1.49992 5.11248 1.49992 5.12602 1.49992 5.13956C1.49992 6.79998 2.68429 8.17915 4.23742 8.49685C3.95929 8.5729 3.65617 8.60935 3.34159 8.60935C3.12284 8.60935 2.902 8.59686 2.69471 8.55102C3.13742 9.90415 4.39367 10.8989 5.88742 10.9312C4.72492 11.8406 3.24888 12.3885 1.65096 12.3885C1.37075 12.3885 1.102 12.376 0.833252 12.3416C2.34679 13.3177 4.14054 13.875 6.07492 13.875C12.3624 13.875 15.7999 8.66665 15.7999 4.15206C15.7999 4.00102 15.7947 3.85519 15.7874 3.7104C16.4655 3.22915 17.0353 2.6281 17.4999 1.93644Z" fill="#454341"/>
</svg>
